<?xml version="1.0" encoding="utf-8"?>
<!-- Generator: Adobe Illustrator 19.1.1, SVG Export Plug-In . SVG Version: 6.00 Build 0)  -->
<svg version="1.1" baseProfile="basic" id="Слой_1"
	 xmlns="http://www.w3.org/2000/svg" xmlns:xlink="http://www.w3.org/1999/xlink" x="0px" y="0px" width="117px" height="110px"
	 viewBox="0 0 117 110" xml:space="preserve">
<g>
	<circle fill="#069DFA" cx="55" cy="55" r="55"/>
	<path opacity="0.1" d="M36.6,83L63,109.4c20-2.9,36.5-16.6,43.4-35L95.2,67L36.6,83z"/>
	<g>
		<g>
			<g opacity="0.8">
				<g>
					<g>
						<path fill="#FFFFFF" d="M68.3,80.8l-31.6,2.5L32,35.6l2.5-0.2c1.4-0.1,2.4-1.4,2.3-2.8l-0.2-2.5c-0.1-1.5,0.9-2.7,2.4-2.8
							l17.4-1.4c1.5-0.1,2.8,1,2.9,2.4l0.2,2.5l0.3,2.6l8.9-0.7l33,0.5l3.3,39.9l-6,5.3L68.3,80.8z"/>
					</g>
				</g>
			</g>
			<g>
				<g>
					<g>
						<polygon fill="#066BC6" points="80.5,19.1 41.1,39.6 36.9,83.3 76.1,80.2 98.1,78.5 112.2,77.4 116.4,33.7 						"/>
					</g>
				</g>
			</g>
		</g>
		<g>
			<g>
				<path fill="#FFFFFF" d="M62.1,65.6l-4.5-7.3h-3.7v7.3h-4.4V45h9.6c4.3,0,6.9,2.8,6.9,6.6c0,3.6-1.8,5.6-4.1,6.1l5.1,7.8H62.1z
					 M61.6,51.6c0-1.7-1.3-2.8-3.1-2.8h-4.6v5.6h4.6C60.3,54.4,61.6,53.3,61.6,51.6z"/>
			</g>
			<g>
				<path fill="#FFFFFF" d="M69.8,65.6V45h14.6v3.9H74.2v4.4h9.1V57h-9.1v4.7h10.2v3.9H69.8z"/>
			</g>
			<g>
				<path fill="#FFFFFF" d="M86.8,55.3c0-6.5,4.9-10.6,11-10.6c4.3,0,7,2.2,8.5,4.6l-3.6,2c-0.9-1.5-2.7-2.7-4.9-2.7
					c-3.7,0-6.5,2.9-6.5,6.8c0,3.9,2.7,6.8,6.5,6.8c1.8,0,3.6-0.8,4.4-1.6v-2.2h-5.4v-3.9h9.8v7.7c-2.1,2.3-5,3.9-8.8,3.9
					C91.8,66,86.8,61.8,86.8,55.3z"/>
			</g>
		</g>
	</g>
	<g opacity="0.9">
		<path fill="#FFFFFF" d="M27.2,78.2h-6.5V82h6.5v1.7h-8v-7.2h8V78.2z"/>
		<path fill="#FFFFFF" d="M27.2,68.7l-1.4,0.5v3.4l1.4,0.5V75l-8-3.1v-2.1l8-3.1V68.7z M20.9,70.9l3.4,1.2v-2.5L20.9,70.9z"/>
		<path fill="#FFFFFF" d="M27.2,65.3h-8v-3.7c0-1.7,1.2-2.7,2.6-2.7c1.4,0,2.6,1,2.6,2.7v2h2.8V65.3z M21.8,60.6
			c-0.7,0-1.1,0.5-1.1,1.2v1.8h2.2v-1.8C22.9,61.1,22.4,60.6,21.8,60.6z"/>
		<path fill="#FFFFFF" d="M27.2,55.2h-6.5v2.3h-1.5v-6.4h1.5v2.3h6.5V55.2z"/>
		<path fill="#FFFFFF" d="M27.2,43.9h-3.4v3.8h3.4v1.7h-8v-1.7h3.1v-3.8h-3.1v-1.7h8V43.9z"/>
		<path fill="#FFFFFF" d="M18.7,35.8c0,0.4-0.4,0.8-0.8,0.8c-0.4,0-0.8-0.4-0.8-0.8s0.4-0.8,0.8-0.8C18.3,34.9,18.7,35.3,18.7,35.8z
			 M18.7,38.3c0,0.5-0.4,0.8-0.8,0.8c-0.4,0-0.8-0.4-0.8-0.8c0-0.4,0.4-0.8,0.8-0.8C18.3,37.5,18.7,37.8,18.7,38.3z M27.2,39.8h-8
			v-5.7h1.5v4h1.7v-3.9h1.5v3.9h1.8v-4h1.5V39.8z"/>
		<path fill="#FFFFFF" d="M27.2,32.1h-8v-3.7c0-1.7,1.2-2.7,2.6-2.7c1.4,0,2.6,1,2.6,2.7v2h2.8V32.1z M21.8,27.4
			c-0.7,0-1.1,0.5-1.1,1.2v1.8h2.2v-1.8C22.9,27.9,22.4,27.4,21.8,27.4z"/>
	</g>
</g>
<g>
</g>
<g>
</g>
<g>
</g>
<g>
</g>
<g>
</g>
<g>
</g>
<g>
</g>
<g>
</g>
<g>
</g>
<g>
</g>
<g>
</g>
<g>
</g>
<g>
</g>
<g>
</g>
<g>
</g>
</svg>
